<svg xmlns="http://www.w3.org/2000/svg" viewBox="0 0 512 512">
<defs>
<linearGradient id="bg" x1="0" y1="0" x2="1" y2="1">
<stop offset="0%" stop-color="#0b0f17"/>
<stop offset="100%" stop-color="#182133"/>
</linearGradient>
<linearGradient id="wood" x1="0" y1="0" x2="1" y2="1">
<stop offset="0%" stop-color="#cd9856"/>
<stop offset="100%" stop-color="#a86f3b"/>
</linearGradient>
</defs>
<rect width="512" height="512" rx="120" fill="url(#bg)"/>
<rect x="70" y="122" width="372" height="280" rx="60" fill="url(#wood)" stroke="#ead2aa" stroke-width="10"/>
<rect x="95" y="122" width="347" height="90" rx="60" fill="#ffffff18"/>
<rect x="120" y="190" width="170" height="145" rx="22" fill="#5b3822" stroke="#ead2aa88" stroke-width="6"/>
<g stroke="#c59c67" stroke-width="7">
<line x1="145" y1="205" x2="145" y2="320"/><line x1="170" y1="205" x2="170" y2="320"/><line x1="195" y1="205" x2="195" y2="320"/>
<line x1="220" y1="205" x2="220" y2="320"/><line x1="245" y1="205" x2="245" y2="320"/><line x1="270" y1="205" x2="270" y2="320"/>
</g>
<rect x="330" y="168" width="96" height="20" rx="10" fill="#4a3728"/>
<line x1="362" y1="162" x2="384" y2="193" stroke="#f5e8d2" stroke-width="4"/>
<g>
<circle cx="356" cy="244" r="28" fill="#584435" stroke="#f0dcbe" stroke-width="5"/>
<circle cx="405" cy="244" r="22" fill="#584435" stroke="#f0dcbe" stroke-width="5"/>
<circle cx="375" cy="320" r="36" fill="#584435" stroke="#f0dcbe" stroke-width="5"/>
</g>
<line x1="250" y1="122" x2="360" y2="35" stroke="#f0e0c2" stroke-width="6"/>
<circle cx="370" cy="30" r="12" fill="#f0e0c2"/>
<rect x="125" y="400" width="38" height="20" fill="#6a482d"/>
<rect x="350" y="400" width="38" height="20" fill="#6a482d"/>
</svg>